<mxfile host="65bd71144e" modified="2021-01-22T09:09:53.479Z" agent="5.0 (Macintosh; Intel Mac OS X 11_0_0) AppleWebKit/537.36 (KHTML, like Gecko) Code/1.52.1 Chrome/83.0.4103.122 Electron/9.3.5 Safari/537.36" version="13.10.0" etag="kfPfOsZKqlIN0nOT57Ta" type="embed">
    <diagram id="qPHSsVf0sfHk82GCl2PV" name="Page-1">
        <mxGraphModel dx="1746" dy="650" grid="1" gridSize="10" guides="1" tooltips="1" connect="1" arrows="1" fold="1" page="1" pageScale="1" pageWidth="827" pageHeight="1169" math="0" shadow="0">
            <root>
                <mxCell id="0"/>
                <mxCell id="1" parent="0"/>
                <mxCell id="2" value="用户" style="html=1;dashed=0;whitespace=wrap;" vertex="1" parent="1">
                    <mxGeometry x="80" y="200" width="100" height="50" as="geometry"/>
                </mxCell>
                <mxCell id="3" value="插件输入" style="html=1;dashed=0;whitespace=wrap;" vertex="1" parent="1">
                    <mxGeometry x="80" y="320" width="100" height="50" as="geometry"/>
                </mxCell>
                <mxCell id="4" value="neuron" style="html=1;dashed=0;whitespace=wrap;rounded=1;" vertex="1" parent="1">
                    <mxGeometry x="280" y="280" width="100" height="50" as="geometry"/>
                </mxCell>
                <mxCell id="5" value="Markdown" style="html=1;dashed=0;whitespace=wrap;rounded=0;" vertex="1" parent="1">
                    <mxGeometry x="440" y="200" width="100" height="50" as="geometry"/>
                </mxCell>
                <mxCell id="6" value="" style="endArrow=classic;html=1;" edge="1" parent="1" source="2" target="4">
                    <mxGeometry width="50" height="50" relative="1" as="geometry">
                        <mxPoint x="370" y="330" as="sourcePoint"/>
                        <mxPoint x="420" y="280" as="targetPoint"/>
                    </mxGeometry>
                </mxCell>
                <mxCell id="7" value="" style="endArrow=classic;html=1;" edge="1" parent="1" source="4" target="5">
                    <mxGeometry width="50" height="50" relative="1" as="geometry">
                        <mxPoint x="370" y="330" as="sourcePoint"/>
                        <mxPoint x="420" y="280" as="targetPoint"/>
                    </mxGeometry>
                </mxCell>
                <mxCell id="8" value="" style="endArrow=classic;html=1;" edge="1" parent="1" source="3" target="4">
                    <mxGeometry width="50" height="50" relative="1" as="geometry">
                        <mxPoint x="370" y="330" as="sourcePoint"/>
                        <mxPoint x="300" y="310" as="targetPoint"/>
                    </mxGeometry>
                </mxCell>
                <mxCell id="9" value="第三方编辑器" style="html=1;dashed=0;whitespace=wrap;rounded=0;" vertex="1" parent="1">
                    <mxGeometry x="440" y="320" width="100" height="50" as="geometry"/>
                </mxCell>
                <mxCell id="10" value="" style="endArrow=classic;html=1;" edge="1" parent="1" source="4" target="9">
                    <mxGeometry width="50" height="50" relative="1" as="geometry">
                        <mxPoint x="370" y="330" as="sourcePoint"/>
                        <mxPoint x="420" y="280" as="targetPoint"/>
                    </mxGeometry>
                </mxCell>
                <mxCell id="34" style="edgeStyle=orthogonalEdgeStyle;rounded=1;sketch=0;orthogonalLoop=1;jettySize=auto;html=1;shadow=0;" edge="1" parent="1" source="11" target="20">
                    <mxGeometry relative="1" as="geometry"/>
                </mxCell>
                <mxCell id="11" value="用户" style="html=1;dashed=0;whitespace=wrap;shadow=0;" vertex="1" parent="1">
                    <mxGeometry x="-450" y="650" width="100" height="50" as="geometry"/>
                </mxCell>
                <mxCell id="32" style="edgeStyle=orthogonalEdgeStyle;rounded=1;sketch=0;orthogonalLoop=1;jettySize=auto;html=1;shadow=0;" edge="1" parent="1" source="12" target="21">
                    <mxGeometry relative="1" as="geometry"/>
                </mxCell>
                <mxCell id="12" value="插件输入" style="html=1;dashed=0;whitespace=wrap;" vertex="1" parent="1">
                    <mxGeometry x="-250" y="1195" width="100" height="50" as="geometry"/>
                </mxCell>
                <mxCell id="14" value="Markdown" style="html=1;dashed=0;whitespace=wrap;rounded=0;" vertex="1" parent="1">
                    <mxGeometry y="650" width="100" height="50" as="geometry"/>
                </mxCell>
                <mxCell id="18" value="第三方编辑器" style="html=1;dashed=0;whitespace=wrap;rounded=0;" vertex="1" parent="1">
                    <mxGeometry y="1195" width="100" height="50" as="geometry"/>
                </mxCell>
                <mxCell id="25" style="edgeStyle=orthogonalEdgeStyle;rounded=1;sketch=0;orthogonalLoop=1;jettySize=auto;html=1;entryX=0;entryY=0.5;entryDx=0;entryDy=0;shadow=0;" edge="1" parent="1" source="20" target="22">
                    <mxGeometry relative="1" as="geometry">
                        <Array as="points">
                            <mxPoint x="-400" y="920"/>
                        </Array>
                    </mxGeometry>
                </mxCell>
                <mxCell id="20" value="editor" style="html=1;dashed=0;whitespace=wrap;rounded=1;" vertex="1" parent="1">
                    <mxGeometry x="-450" y="775" width="100" height="50" as="geometry"/>
                </mxCell>
                <mxCell id="36" style="edgeStyle=orthogonalEdgeStyle;rounded=1;sketch=0;orthogonalLoop=1;jettySize=auto;html=1;entryX=0.5;entryY=1;entryDx=0;entryDy=0;shadow=0;" edge="1" parent="1" source="21" target="27">
                    <mxGeometry relative="1" as="geometry">
                        <mxPoint x="-66" y="1045" as="targetPoint"/>
                    </mxGeometry>
                </mxCell>
                <mxCell id="21" value="NodeService" style="html=1;dashed=0;whitespace=wrap;rounded=1;" vertex="1" parent="1">
                    <mxGeometry x="-250" y="1085" width="100" height="50" as="geometry"/>
                </mxCell>
                <mxCell id="56" style="edgeStyle=orthogonalEdgeStyle;rounded=1;sketch=0;orthogonalLoop=1;jettySize=auto;html=1;shadow=0;" edge="1" parent="1" source="22" target="54">
                    <mxGeometry relative="1" as="geometry"/>
                </mxCell>
                <mxCell id="60" style="edgeStyle=orthogonalEdgeStyle;rounded=1;sketch=0;orthogonalLoop=1;jettySize=auto;html=1;shadow=0;" edge="1" parent="1" source="22" target="20">
                    <mxGeometry relative="1" as="geometry">
                        <Array as="points">
                            <mxPoint x="-400" y="920"/>
                        </Array>
                    </mxGeometry>
                </mxCell>
                <mxCell id="63" style="edgeStyle=orthogonalEdgeStyle;rounded=1;sketch=0;orthogonalLoop=1;jettySize=auto;html=1;entryX=0.5;entryY=1;entryDx=0;entryDy=0;shadow=0;" edge="1" parent="1" source="22" target="61">
                    <mxGeometry relative="1" as="geometry"/>
                </mxCell>
                <mxCell id="22" value="SQLSystem" style="html=1;dashed=0;whitespace=wrap;rounded=1;" vertex="1" parent="1">
                    <mxGeometry x="-250" y="895" width="100" height="50" as="geometry"/>
                </mxCell>
                <mxCell id="26" value="全局快捷键输入" style="html=1;dashed=0;whitespace=wrap;rounded=0;" vertex="1" parent="1">
                    <mxGeometry x="-450" y="1195" width="100" height="50" as="geometry"/>
                </mxCell>
                <mxCell id="37" style="edgeStyle=orthogonalEdgeStyle;rounded=1;sketch=0;orthogonalLoop=1;jettySize=auto;html=1;shadow=0;" edge="1" parent="1" source="27" target="22">
                    <mxGeometry relative="1" as="geometry"/>
                </mxCell>
                <mxCell id="27" value="&lt;p class=&quot;p1&quot; style=&quot;margin: 0px 0px 6px ; font-stretch: normal ; font-size: 14px ; line-height: normal ; font-family: &amp;#34;helvetica neue&amp;#34; ; color: rgba(0 , 0 , 0 , 0.85)&quot;&gt;Deserialize&lt;/p&gt;" style="html=1;dashed=0;whitespace=wrap;rounded=1;" vertex="1" parent="1">
                    <mxGeometry x="-250" y="970" width="100" height="50" as="geometry"/>
                </mxCell>
                <mxCell id="49" style="edgeStyle=orthogonalEdgeStyle;rounded=1;sketch=0;orthogonalLoop=1;jettySize=auto;html=1;entryX=0;entryY=0.5;entryDx=0;entryDy=0;shadow=0;" edge="1" parent="1" source="30" target="27">
                    <mxGeometry relative="1" as="geometry">
                        <Array as="points">
                            <mxPoint x="-400" y="990"/>
                        </Array>
                    </mxGeometry>
                </mxCell>
                <mxCell id="30" value="Global&amp;nbsp;&lt;span style=&quot;color: rgba(0 , 0 , 0 , 0.85) ; font-family: &amp;#34;helvetica neue&amp;#34; ; font-size: 14px&quot;&gt;keyboard&lt;/span&gt;" style="html=1;dashed=0;whitespace=wrap;rounded=1;" vertex="1" parent="1">
                    <mxGeometry x="-450" y="1085" width="100" height="50" as="geometry"/>
                </mxCell>
                <mxCell id="33" style="edgeStyle=orthogonalEdgeStyle;rounded=1;sketch=0;orthogonalLoop=1;jettySize=auto;html=1;shadow=0;" edge="1" parent="1" source="26" target="30">
                    <mxGeometry relative="1" as="geometry">
                        <mxPoint x="-200" y="1035" as="targetPoint"/>
                        <mxPoint x="-200" y="1215" as="sourcePoint"/>
                    </mxGeometry>
                </mxCell>
                <mxCell id="44" value="" style="endArrow=none;dashed=1;html=1;shadow=0;" edge="1" parent="1">
                    <mxGeometry width="50" height="50" relative="1" as="geometry">
                        <mxPoint x="-650" y="840" as="sourcePoint"/>
                        <mxPoint x="226.66666666666663" y="840" as="targetPoint"/>
                    </mxGeometry>
                </mxCell>
                <mxCell id="57" style="edgeStyle=orthogonalEdgeStyle;rounded=1;sketch=0;orthogonalLoop=1;jettySize=auto;html=1;shadow=0;" edge="1" parent="1" source="54" target="18">
                    <mxGeometry relative="1" as="geometry"/>
                </mxCell>
                <mxCell id="59" style="edgeStyle=orthogonalEdgeStyle;rounded=1;sketch=0;orthogonalLoop=1;jettySize=auto;html=1;entryX=0.5;entryY=1;entryDx=0;entryDy=0;shadow=0;" edge="1" parent="1" source="54" target="14">
                    <mxGeometry relative="1" as="geometry"/>
                </mxCell>
                <mxCell id="54" value="&lt;span style=&quot;color: rgba(0 , 0 , 0 , 0.85) ; font-family: &amp;#34;helvetica neue&amp;#34; ; font-size: 14px&quot;&gt;serialize&lt;/span&gt;" style="html=1;dashed=0;whitespace=wrap;rounded=1;" vertex="1" parent="1">
                    <mxGeometry y="895" width="100" height="50" as="geometry"/>
                </mxCell>
                <mxCell id="62" style="edgeStyle=orthogonalEdgeStyle;rounded=1;sketch=0;orthogonalLoop=1;jettySize=auto;html=1;entryX=0.5;entryY=0;entryDx=0;entryDy=0;shadow=0;" edge="1" parent="1" source="61" target="22">
                    <mxGeometry relative="1" as="geometry"/>
                </mxCell>
                <mxCell id="61" value="SQLite" style="html=1;dashed=0;whitespace=wrap;shape=partialRectangle;right=0;rounded=1;shadow=0;glass=0;sketch=0;" vertex="1" parent="1">
                    <mxGeometry x="-250" y="850" width="100" height="20" as="geometry"/>
                </mxCell>
            </root>
        </mxGraphModel>
    </diagram>
</mxfile>
